<svg
  xmlns="http://www.w3.org/2000/svg"
  width="512"
  height="512"
>
<style>
  .keyline {
    stroke-width: 1px;
    stroke: grey;
    fill: none;
  }
</style>
<rect width="100%" height="100%" fill="white"/>
<path d="M 142 113.653
         A 304 304, 0, 0, 1, 218 104
         L 218 408
         L 142 408"
      style="stroke: none; fill: #10a8c8;"
/>
<path d="M 218 104
         A 190 190, 0, 0, 1, 294 119.862
         L 294 332
         A 38 38, 0, 0, 0, 218 332"
      style="stroke: none; fill: #441e8b;"
/>
<path d="M 294 119.862
         A 190 190, 0, 0, 1, 370 180
         L 370 378.971
         A 114 114, 0, 0, 1, 294 408"
      style="stroke: none; fill: #57a73f;"
/>
<rect x="0" y="0" width="512" height="512" class="keyline"/>
<rect x="64" y="64" width="384" height="384" class="keyline"/>
<rect x="80" y="128" width="352" height="256" class="keyline"/>
<rect x="104" y="104" width="304" height="304" class="keyline"/>
<rect x="128" y="80" width="256" height="352" class="keyline"/>
<line x1="0" y1="0" x2="512" y2="512" class="keyline"/>
<line x1="0" y1="512" x2="512" y2="0" class="keyline"/>
<circle cx="256" cy="256" r="80" class="keyline"/>
<circle cx="256" cy="256" r="176" class="keyline"/>
</svg>
